<svg width="32" height="42" viewBox="0 0 32 42" fill="none" xmlns="http://www.w3.org/2000/svg">
<path fill-rule="evenodd" clip-rule="evenodd" d="M25.9681 34.4928C24.4465 32.6962 23.1761 30.2731 22.276 27.434C21.3484 24.5055 20.82 21.1355 20.82 17.5502L20.8207 17.1404C21.4514 16.7561 22.0319 16.2999 22.5511 15.7811C24.2264 14.1098 25.2641 11.798 25.2641 9.24463C25.2641 6.6906 24.2264 4.37874 22.5511 2.7075C20.8765 1.03555 18.5578 0 16 0C13.4436 0 11.1249 1.03555 9.44961 2.7075C7.77498 4.37874 6.73662 6.69342 6.73662 9.24463C6.73662 11.798 7.77498 14.1098 9.44961 15.7811C9.96949 16.2999 10.55 16.7561 11.1814 17.1404L11.1828 17.5502C11.18 21.1355 10.6516 24.5062 9.72401 27.4354C8.82603 30.2724 7.55489 32.6962 6.03333 34.4928H3.76051C2.72992 34.4928 1.78961 34.9152 1.10325 35.5987C0.423244 36.2788 0 37.2172 0 38.2471C0 39.2763 0.42395 40.2154 1.10819 40.899C1.78961 41.5783 2.72992 42 3.76051 42H28.2395C29.2701 42 30.2118 41.5769 30.8967 40.8948C31.5761 40.2154 32 39.2763 32 38.2464C32 37.2172 31.5768 36.2788 30.8918 35.5938C30.2118 34.9159 29.2701 34.4928 28.2395 34.4928H25.9681Z" fill="#230903"/>
</svg>
