<svg width="32" height="42" viewBox="0 0 32 42" fill="none" xmlns="http://www.w3.org/2000/svg">
<path fill-rule="evenodd" clip-rule="evenodd" d="M22.8994 27.2841C21.6345 22.7179 20.8755 17.6552 20.8233 15.3496H25.0446C25.5122 15.3496 25.9193 15.0061 25.9771 14.5393L27.6765 0.923205C27.6765 0.414161 27.2546 0 26.7361 0H21.7291C21.2106 0 20.7887 0.414161 20.7887 0.923205V5.7477H19.0718V0.923205C19.0718 0.414161 18.6499 0 18.1314 0H13.1236C12.6052 0 12.184 0.414161 12.184 0.923205V5.7477H10.4656V0.923205C10.4656 0.414161 10.0438 0 9.5253 0H4.51751L4.40324 0.00761945C3.88969 0.0685663 3.52287 0.530515 3.58495 1.0354L5.27373 14.5026C5.31252 14.9763 5.71744 15.3503 6.21052 15.3503H11.1767C11.1245 17.6566 10.3655 22.7186 9.10134 27.2841C8.25977 30.3217 7.20728 33.1073 6.01936 34.6143H3.7606C2.72927 34.6143 1.78895 35.0299 1.10328 35.7024C0.422548 36.3714 0 37.2946 0 38.3079C0 39.3204 0.423959 40.2443 1.10751 40.9168C1.78895 41.5851 2.72927 42 3.7606 42H28.2394C29.2707 42 30.2118 41.5838 30.8967 40.9126C31.576 40.2443 32 39.3204 32 38.3072C32 37.2946 31.5774 36.3714 30.8925 35.6975C30.2118 35.0306 29.2707 34.6143 28.2394 34.6143H25.9806C24.7927 33.1073 23.7402 30.3217 22.8994 27.2841Z" fill="#230903"/>
</svg>
