<svg width="32" height="42" viewBox="0 0 32 42" fill="none" xmlns="http://www.w3.org/2000/svg">
<path fill-rule="evenodd" clip-rule="evenodd" d="M6.73662 15.6877C6.73662 17.7385 7.77427 19.5954 9.44961 20.9384C9.96879 21.3545 10.5493 21.7209 11.18 22.0297L11.1821 22.3616C11.18 25.242 10.6516 27.9487 9.72401 30.3015C8.82462 32.582 7.55348 34.5271 6.03192 35.9701H3.76051C2.72921 35.9701 1.78891 36.3094 1.10325 36.8584C0.422539 37.4046 0 38.1584 0 38.9856C0 39.8123 0.423949 40.5666 1.10749 41.1156C1.78891 41.6613 2.72921 42 3.76051 42H28.2388C29.2701 42 30.2118 41.6602 30.896 41.1123C31.5761 40.5666 32 39.8123 32 38.9851C32 38.1584 31.5768 37.4046 30.8918 36.8545C30.2118 36.3099 29.2701 35.9701 28.2388 35.9701H25.9681C24.4458 34.5271 23.1761 32.5808 22.276 30.3004C21.3477 27.9482 20.8193 25.2414 20.8193 22.3616L20.8207 22.0291C21.4514 21.7209 22.0319 21.354 22.5504 20.9384C24.225 19.5954 25.2627 17.7385 25.2627 15.6877C25.2627 13.9896 24.4938 11.6544 23.217 9.56787C22.2795 8.03438 21.0535 6.61738 19.6371 5.655C19.7916 5.48197 19.9263 5.29651 20.0406 5.10256C20.3121 4.63833 20.4666 4.12039 20.4666 3.58039C20.4666 2.59256 19.9672 1.69577 19.1546 1.04777C18.3462 0.402032 17.2309 0 16 0C14.7712 0 13.6531 0.402031 12.8405 1.05172C12.0349 1.69916 11.5334 2.59539 11.5334 3.58039C11.5334 4.12039 11.6872 4.63833 11.9594 5.10256C12.0737 5.29651 12.2077 5.48197 12.3622 5.655C10.9458 6.61738 9.72048 8.03438 8.78229 9.56787C7.50622 11.6544 6.73662 13.9896 6.73662 15.6877Z" fill="#D3B88C"/>
</svg>
