<svg width="32" height="42" viewBox="0 0 32 42" fill="none" xmlns="http://www.w3.org/2000/svg">
<path fill-rule="evenodd" clip-rule="evenodd" d="M5.45772 11.8202L7.58804 18.2819C7.62684 18.3995 7.68257 18.513 7.75381 18.6224C7.2826 18.7597 6.85795 18.963 6.50172 19.2177C5.821 19.705 5.39776 20.3775 5.39776 21.1165C5.39776 21.8541 5.82242 22.5275 6.50595 23.0169C7.18737 23.5037 8.12768 23.8064 9.15898 23.8064H11.1771C11.1257 25.4242 10.3977 28.6114 9.18085 31.5459C8.33084 33.5981 7.25156 35.508 6.02204 36.6193H3.76051C2.72921 36.6193 1.78961 36.922 1.10325 37.4119C0.423244 37.8992 0 38.5716 0 39.3107C0 40.0482 0.423949 40.7212 1.10749 41.211C1.78961 41.6973 2.72921 42 3.76051 42H28.2388C29.2701 42 30.2118 41.6968 30.8967 41.208C31.5761 40.7212 32 40.0482 32 39.3092C32 38.5716 31.5768 37.8992 30.8918 37.4083C30.2118 36.9225 29.2701 36.6193 28.2388 36.6193H25.978C24.7477 35.508 23.6692 33.5981 22.8192 31.5459C21.6023 28.6114 20.8743 25.4242 20.8229 23.8064H22.8396C23.8709 23.8064 24.8126 23.5027 25.4976 23.0138C26.1769 22.5275 26.6008 21.8541 26.6008 21.115C26.6008 20.3775 26.1776 19.705 25.4926 19.2147C25.0398 18.8908 24.4705 18.6487 23.8371 18.5226C23.8801 18.4444 23.9154 18.3636 23.9422 18.2819L26.088 11.7627C26.1197 11.6477 26.1353 11.5422 26.1353 11.4469C26.1353 11.117 25.9871 10.8153 25.7226 10.5706C25.456 10.3244 25.0765 10.1459 24.6257 10.0697L24.5749 10.0626C24.4275 10.0394 24.2751 10.0278 24.1234 10.0278H22.8798C22.5144 9.45121 21.9755 8.9306 21.3082 8.4907C20.5435 7.98825 19.6053 7.5872 18.5571 7.32992L18.5084 7.25576C18.4717 7.18867 18.4506 7.11098 18.4506 7.02825V6.41482H19.3091C19.4995 6.41482 19.6766 6.4577 19.8148 6.52984L19.836 6.54194C19.9693 6.61509 20.0723 6.71649 20.1259 6.83252C20.2127 7.14024 20.5929 7.3728 21.0486 7.3728H21.1085C21.6263 7.3728 22.0481 7.07113 22.0481 6.70085V2.28675C22.0481 1.91597 21.6263 1.6148 21.1085 1.6148L21.0486 1.61682C20.6324 1.61682 20.2515 1.81709 20.1414 2.11877C20.0935 2.24892 19.9841 2.36495 19.8332 2.44818C19.6921 2.52587 19.5087 2.57279 19.3091 2.57279H18.4506V1.95885C18.4506 1.82264 18.5105 1.69653 18.6121 1.59715L18.6283 1.58201C18.7306 1.48616 18.8724 1.41302 19.0347 1.37468C19.4657 1.31313 19.7908 1.04072 19.7908 0.715335V0.672456C19.7908 0.301672 19.369 0 18.8505 0H12.679C12.1605 0 11.7387 0.301672 11.7387 0.672456L11.7422 0.715335C11.7422 1.01297 12.0215 1.28488 12.4433 1.36358C12.6253 1.39788 12.7876 1.47658 12.904 1.58453C13.0126 1.68543 13.0782 1.81608 13.0782 1.95885V2.57279H12.2204C12.0293 2.57279 11.8529 2.52991 11.714 2.45777L11.6928 2.44566C11.5588 2.37251 11.4565 2.27011 11.4022 2.15458C11.3168 1.84736 10.9359 1.6148 10.4809 1.6148H10.4224C9.90389 1.6148 9.48205 1.91597 9.48205 2.28675V6.70085C9.48205 7.07113 9.90389 7.3728 10.4224 7.3728L10.4809 7.37078C10.8971 7.37078 11.278 7.17051 11.3881 6.86884C11.4353 6.73818 11.5454 6.62266 11.6963 6.53942C11.8374 6.46173 12.0208 6.41482 12.2204 6.41482H13.0782V7.02825C13.0782 7.10241 13.0627 7.17001 13.0359 7.22852L12.971 7.33093C11.9228 7.58821 10.986 7.98825 10.2213 8.4907C9.5526 8.9306 9.01578 9.45121 8.65038 10.0278H7.40746C7.23957 10.0278 7.07098 10.0424 6.90803 10.0697C6.45234 10.1459 6.07213 10.3244 5.80619 10.5681L5.7547 10.6206C5.52473 10.8546 5.39353 11.1392 5.39353 11.4469L5.4027 11.5367C5.40905 11.628 5.4288 11.7238 5.45772 11.8202Z" fill="#D3B88C"/>
</svg>
