<svg width="32" height="42" viewBox="0 0 32 42" fill="none" xmlns="http://www.w3.org/2000/svg">
<path fill-rule="evenodd" clip-rule="evenodd" d="M8.97076 4.91933C8.97076 6.53691 7.44936 8.14103 5.92656 9.74516C3.40872 12.3995 0.885957 15.0615 3.41435 18.5804C3.54172 18.7577 3.68316 18.9249 3.83587 19.0734C4.97797 20.2223 6.52259 20.4233 8.17699 20.0904C9.64843 19.7939 11.2008 19.0626 12.5814 18.241C13.8777 17.4712 15.0458 16.6055 15.8452 15.9548C16.4532 15.6603 16.867 15.5636 17.121 15.6142C17.2083 15.6308 17.2793 15.7064 17.3286 15.8178C17.4398 16.0631 17.4729 16.4262 17.4461 16.8533C17.3525 18.2941 16.5693 20.1858 15.6425 21.2501L15.6003 21.293C13.9938 23.0822 12.49 24.4833 11.1121 25.7685C8.09888 28.5765 5.64297 30.8672 4.02657 35.1711H3.75213C2.72332 35.1711 1.78528 35.5553 1.10058 36.1771C0.422219 36.7957 0 37.6493 0 38.5862C0 39.5224 0.422923 40.3767 1.10551 40.9985C1.78529 41.6164 2.72332 42 3.75213 42H28.1712C29.2 42 30.1388 41.6151 30.822 40.9946C31.4997 40.3767 31.9226 39.5224 31.9226 38.5855C31.9226 37.6493 31.5004 36.7957 30.8178 36.1726C30.1388 35.556 29.2 35.1711 28.1712 35.1711H27.6793C27.7764 34.9021 27.8728 34.63 27.9664 34.3572C28.1789 33.7392 28.3971 33.0623 28.6173 32.3304C29.4653 29.5243 30.4807 26.0791 31.1753 22.5788C31.8783 19.0337 32.2548 15.4253 31.8044 12.3438C31.2802 8.76091 29.2605 5.64679 26.2417 3.44391C23.2875 1.2865 19.3778 0 14.9888 0L8.2178 0.00384207C7.98417 0.00256133 7.75055 0.0813277 7.5697 0.24078C7.19885 0.566088 7.18689 1.10528 7.54436 1.44276C7.79136 1.70403 8.04188 1.96594 8.22202 2.2714C8.46128 2.64729 8.65199 3.0693 8.78006 3.51948C8.90321 3.95173 8.97076 4.42368 8.97076 4.91933Z" fill="#D3B88C"/>
</svg>
