<svg width="32" height="42" viewBox="0 0 32 42" fill="none" xmlns="http://www.w3.org/2000/svg">
<path fill-rule="evenodd" clip-rule="evenodd" d="M5.70602 8.48211C7.9739 10.2889 7.85257 11.9134 7.72842 13.5787C7.6473 14.6667 7.56476 15.774 8.00564 16.9949C7.43497 17.1375 6.92144 17.3812 6.50313 17.7003C5.82241 18.2201 5.39917 18.9373 5.39917 19.7256C5.39917 20.5122 5.82383 21.2306 6.50736 21.7525C7.18878 22.2717 8.12909 22.5946 9.16039 22.5946H11.1771C11.1264 24.3202 10.3977 27.7197 9.18156 30.8496C8.33084 33.0385 7.25227 35.0756 6.02204 36.261H3.76122C2.72992 36.261 1.78961 36.5838 1.10396 37.1063C0.423243 37.626 0 38.3433 0 39.1316C0 39.9182 0.424655 40.636 1.10819 41.1585C1.78961 41.6772 2.72992 42 3.76122 42H28.2395C29.2708 42 30.2118 41.6766 30.8967 41.1552C31.5761 40.636 32 39.9182 32 39.1299C32 38.3433 31.5775 37.626 30.8925 37.1025C30.2118 36.5843 29.2708 36.261 28.2395 36.261H25.978C24.7484 35.0756 23.6692 33.0385 22.8192 30.8496C21.6023 27.7197 20.8744 24.3202 20.8236 22.5946H22.8403C23.8744 22.5946 24.8183 22.2706 25.4976 21.7525L25.5575 21.703C26.2016 21.1881 26.6008 20.4896 26.6008 19.724C26.6008 18.9373 26.1783 18.2201 25.4976 17.6971C25.2535 17.5109 24.9756 17.35 24.6715 17.2203C25.2091 15.9085 25.1223 14.7334 25.0355 13.5787C24.9114 11.9134 24.7908 10.2889 27.0586 8.48211C27.417 8.19855 27.405 7.74549 27.0325 7.47215C26.8872 7.36562 26.7073 7.30105 26.5211 7.2806C26.0767 7.23433 25.7875 7.21496 25.3403 7.19774C24.9713 7.19774 24.6088 7.22141 24.2547 7.26554C23.9683 6.52892 23.4484 5.85149 22.7528 5.27092C22.0432 4.68066 21.1431 4.19048 20.1153 3.83966C20.2261 3.56201 20.286 3.27092 20.286 2.97767C20.286 2.15658 19.8473 1.40974 19.1426 0.872209C18.4379 0.334679 17.4609 0 16.3823 0C15.3052 0 14.3261 0.334679 13.6214 0.872209C12.9167 1.40974 12.4779 2.15658 12.4779 2.97767C12.4779 3.27092 12.5379 3.56201 12.6493 3.83966C11.6208 4.19048 10.7207 4.68066 10.0118 5.27092L9.96526 5.31235C9.2923 5.8827 8.79076 6.54506 8.51072 7.26554C8.1559 7.22141 7.79261 7.19774 7.42439 7.19774L6.81139 7.22142L6.21533 7.28437C5.70673 7.35378 5.36813 7.72558 5.45913 8.11299C5.4937 8.2572 5.58117 8.38418 5.70602 8.48211Z" fill="#D3B88C"/>
</svg>
